<svg width="380" height="405" viewBox="0 0 380 405" fill="none" xmlns="http://www.w3.org/2000/svg">
<g clip-path="url(#clip0_14_7)">
<path fill-rule="evenodd" clip-rule="evenodd" d="M199.776 0.000244141V18.6143H206.653V91.0502H215.686V68.7432H220.443V63.3542L230.85 68.7432H233.399V55.3422L245.85 35.9193L258.3 55.3422V100.913H264.145V109.769H272.769V73.6262H279.916L279.619 58.6302H287.89V54.3352H296.27L297.56 28.3622L298.848 54.3352H300.46V58.6302H302.635L301.838 98.7912H303.382V81.0732L320.709 68.7432V91.0502H338.037V73.6262H348.734V63.3542L367.056 78.9432V63.3542L391.622 84.2552V237H373.3H367.056H349.514H348.734H338.037H320.709H303.382H299.791H284.247H282.464H273.771H272.769H258.3H248.87H233.399H215.686H206.653H191.344H184.799H169.448H165.285H151.188H143.512H131.113H126.621H120.227H109.341H106.546H95.6604H89.7858H84.7738H65.2203H57.1189H46.582H36.0438H27.9313H25.5069H13.7376H10.604H0.00012207V88.1382H8.34462L7.75964 58.6302H25.5069V15.9152H36.0438V24.9952H46.582V33.3082H57.1189V76.1672H65.2203V56.2402H68.1049V54.0422H86.9006V56.2402H89.7858V97.7912H95.6604V44.3903H98.5463V42.1922H117.341V44.3903H120.227V75.1403H126.621V56.2402H129.507V54.0422H148.302V56.2402H151.188V63.3542L157.219 71.1823V84.3042H165.285V76.1672H169.448V56.2402H184.799V44.4432L191.344 37.7142V18.6143H198.221V0.000244141H199.776Z" fill="white" fill-opacity="0.2"/>
</g>
<defs>
<clipPath id="clip0_14_7">
<rect width="380" height="405" fill="white"/>
</clipPath>
</defs>
</svg>
