<svg width="257" height="181" viewBox="0 0 257 181" fill="none" xmlns="http://www.w3.org/2000/svg">
<g filter="url(#filter0_d_11_9)">
<path fill-rule="evenodd" clip-rule="evenodd" d="M223.99 71.4338C227.996 71.4338 231.243 74.2567 231.243 77.7388V83.6948C231.243 87.177 227.996 89.9998 223.99 89.9998C219.985 89.9998 216.738 87.177 216.738 83.6948V77.7388C216.738 74.2567 219.985 71.4338 223.99 71.4338Z" fill="#FB9403"/>
<path fill-rule="evenodd" clip-rule="evenodd" d="M231.243 66.7923C231.243 62.9472 234.666 59.8301 238.889 59.8301H245.354C249.577 59.8301 253 62.9472 253 66.7923C253 70.6374 249.577 73.7545 245.354 73.7545H238.889C234.666 73.7545 231.243 70.6374 231.243 66.7923Z" fill="#FB9403"/>
<path fill-rule="evenodd" clip-rule="evenodd" d="M194.98 66.7923C194.98 62.9472 198.404 59.8301 202.627 59.8301H209.091C213.314 59.8301 216.738 62.9472 216.738 66.7923C216.738 70.6374 213.314 73.7545 209.091 73.7545H202.627C198.404 73.7545 194.98 70.6374 194.98 66.7923Z" fill="white"/>
<path fill-rule="evenodd" clip-rule="evenodd" d="M223.994 41.2644C227.999 41.2657 231.244 44.0895 231.243 47.5716L231.24 53.5277C231.239 57.0098 227.991 59.8316 223.986 59.8303C219.982 59.8291 216.736 57.0052 216.738 53.5231L216.74 47.567C216.742 44.0849 219.989 41.2631 223.994 41.2644Z" fill="white"/>
</g>
<path d="M64.6364 45H56.1818C55.6818 42.5682 54.8068 40.4318 53.5568 38.5909C52.3295 36.75 50.8295 35.2045 49.0568 33.9545C47.3068 32.6818 45.3636 31.7273 43.2273 31.0909C41.0909 30.4545 38.8636 30.1364 36.5455 30.1364C32.3182 30.1364 28.4886 31.2045 25.0568 33.3409C21.6477 35.4773 18.9318 38.625 16.9091 42.7841C14.9091 46.9432 13.9091 52.0455 13.9091 58.0909C13.9091 64.1364 14.9091 69.2386 16.9091 73.3977C18.9318 77.5568 21.6477 80.7045 25.0568 82.8409C28.4886 84.9773 32.3182 86.0455 36.5455 86.0455C38.8636 86.0455 41.0909 85.7273 43.2273 85.0909C45.3636 84.4545 47.3068 83.5114 49.0568 82.2614C50.8295 80.9886 52.3295 79.4318 53.5568 77.5909C54.8068 75.7273 55.6818 73.5909 56.1818 71.1818H64.6364C64 74.75 62.8409 77.9432 61.1591 80.7614C59.4773 83.5795 57.3864 85.9773 54.8864 87.9545C52.3864 89.9091 49.5795 91.3977 46.4659 92.4205C43.375 93.4432 40.0682 93.9545 36.5455 93.9545C30.5909 93.9545 25.2955 92.5 20.6591 89.5909C16.0227 86.6818 12.375 82.5455 9.71591 77.1818C7.05682 71.8182 5.72727 65.4545 5.72727 58.0909C5.72727 50.7273 7.05682 44.3636 9.71591 39C12.375 33.6364 16.0227 29.5 20.6591 26.5909C25.2955 23.6818 30.5909 22.2273 36.5455 22.2273C40.0682 22.2273 43.375 22.7386 46.4659 23.7614C49.5795 24.7841 52.3864 26.2841 54.8864 28.2614C57.3864 30.2159 59.4773 32.6023 61.1591 35.4205C62.8409 38.2159 64 41.4091 64.6364 45ZM77.2074 93V40.6364H85.2528V93H77.2074ZM81.2983 31.9091C79.7301 31.9091 78.3778 31.375 77.2415 30.3068C76.1278 29.2386 75.571 27.9545 75.571 26.4545C75.571 24.9545 76.1278 23.6705 77.2415 22.6023C78.3778 21.5341 79.7301 21 81.2983 21C82.8665 21 84.2074 21.5341 85.321 22.6023C86.4574 23.6705 87.0256 24.9545 87.0256 26.4545C87.0256 27.9545 86.4574 29.2386 85.321 30.3068C84.2074 31.375 82.8665 31.9091 81.2983 31.9091ZM122.761 40.6364V47.4545H95.625V40.6364H122.761ZM103.534 28.0909H111.58V78C111.58 80.2727 111.909 81.9773 112.568 83.1136C113.25 84.2273 114.114 84.9773 115.159 85.3636C116.227 85.7273 117.352 85.9091 118.534 85.9091C119.42 85.9091 120.148 85.8636 120.716 85.7727C121.284 85.6591 121.739 85.5682 122.08 85.5L123.716 92.7273C123.17 92.9318 122.409 93.1364 121.432 93.3409C120.455 93.5682 119.216 93.6818 117.716 93.6818C115.443 93.6818 113.216 93.1932 111.034 92.2159C108.875 91.2386 107.08 89.75 105.648 87.75C104.239 85.75 103.534 83.2273 103.534 80.1818V28.0909ZM140.045 112.636C138.682 112.636 137.466 112.523 136.398 112.295C135.33 112.091 134.591 111.886 134.182 111.682L136.227 104.591C138.182 105.091 139.909 105.273 141.409 105.136C142.909 105 144.239 104.33 145.398 103.125C146.58 101.943 147.659 100.023 148.636 97.3636L150.136 93.2727L130.773 40.6364H139.5L153.955 82.3636H154.5L168.955 40.6364H177.682L155.455 100.636C154.455 103.341 153.216 105.58 151.739 107.352C150.261 109.148 148.545 110.477 146.591 111.341C144.659 112.205 142.477 112.636 140.045 112.636Z" fill="white"/>
<defs>
<filter id="filter0_d_11_9" x="190.98" y="41.2644" width="66.0197" height="56.7354" filterUnits="userSpaceOnUse" color-interpolation-filters="sRGB">
<feFlood flood-opacity="0" result="BackgroundImageFix"/>
<feColorMatrix in="SourceAlpha" type="matrix" values="0 0 0 0 0 0 0 0 0 0 0 0 0 0 0 0 0 0 127 0" result="hardAlpha"/>
<feOffset dy="4"/>
<feGaussianBlur stdDeviation="2"/>
<feComposite in2="hardAlpha" operator="out"/>
<feColorMatrix type="matrix" values="0 0 0 0 0 0 0 0 0 0 0 0 0 0 0 0 0 0 0.25 0"/>
<feBlend mode="normal" in2="BackgroundImageFix" result="effect1_dropShadow_11_9"/>
<feBlend mode="normal" in="SourceGraphic" in2="effect1_dropShadow_11_9" result="shape"/>
</filter>
</defs>
</svg>
