<svg width="243" height="155" viewBox="0 0 243 155" fill="none" xmlns="http://www.w3.org/2000/svg">
<g filter="url(#filter0_d_13_4)">
<path fill-rule="evenodd" clip-rule="evenodd" d="M209.01 71.0984C213.015 71.0984 216.262 73.5074 216.262 76.4791V81.562C216.262 84.5336 213.015 86.9427 209.01 86.9427C205.004 86.9427 201.757 84.5336 201.757 81.562V76.4791C201.757 73.5074 205.004 71.0984 209.01 71.0984Z" fill="#FB9403"/>
<path fill-rule="evenodd" clip-rule="evenodd" d="M216.262 67.1372C216.262 63.8557 219.686 61.1956 223.909 61.1956H230.373C234.596 61.1956 238.02 63.8557 238.02 67.1372C238.02 70.4186 234.596 73.0788 230.373 73.0788H223.909C219.686 73.0788 216.262 70.4186 216.262 67.1372Z" fill="#FB9403"/>
<path fill-rule="evenodd" clip-rule="evenodd" d="M180 67.1372C180 63.8557 183.423 61.1956 187.646 61.1956H194.111C198.334 61.1956 201.757 63.8557 201.757 67.1372C201.757 70.4186 198.334 73.0788 194.111 73.0788H187.646C183.423 73.0788 180 70.4186 180 67.1372Z" fill="white"/>
<path fill-rule="evenodd" clip-rule="evenodd" d="M208.256 46.2251C212.261 46.2262 215.506 48.6361 215.505 51.6077L215.502 56.6907C215.501 59.6623 212.253 62.0705 208.249 62.0694C204.244 62.0683 200.999 59.6584 201 56.6867L201.003 51.6038C201.004 48.6321 204.252 46.224 208.256 46.2251Z" fill="white"/>
</g>
<path d="M64.6364 45.5337H56.1818C55.6818 43.1019 54.8068 40.9655 53.5568 39.1246C52.3295 37.2837 50.8295 35.7382 49.0568 34.4882C47.3068 33.2155 45.3636 32.261 43.2273 31.6246C41.0909 30.9882 38.8636 30.6701 36.5455 30.6701C32.3182 30.6701 28.4886 31.7382 25.0568 33.8746C21.6477 36.011 18.9318 39.1587 16.9091 43.3178C14.9091 47.4769 13.9091 52.5791 13.9091 58.6246C13.9091 64.6701 14.9091 69.7723 16.9091 73.9314C18.9318 78.0905 21.6477 81.2382 25.0568 83.3746C28.4886 85.511 32.3182 86.5791 36.5455 86.5791C38.8636 86.5791 41.0909 86.261 43.2273 85.6246C45.3636 84.9882 47.3068 84.0451 49.0568 82.7951C50.8295 81.5223 52.3295 79.9655 53.5568 78.1246C54.8068 76.261 55.6818 74.1246 56.1818 71.7155H64.6364C64 75.2837 62.8409 78.4769 61.1591 81.2951C59.4773 84.1132 57.3864 86.511 54.8864 88.4882C52.3864 90.4428 49.5795 91.9314 46.4659 92.9541C43.375 93.9769 40.0682 94.4882 36.5455 94.4882C30.5909 94.4882 25.2955 93.0337 20.6591 90.1246C16.0227 87.2155 12.375 83.0791 9.71591 77.7155C7.05682 72.3519 5.72727 65.9882 5.72727 58.6246C5.72727 51.261 7.05682 44.8973 9.71591 39.5337C12.375 34.1701 16.0227 30.0337 20.6591 27.1246C25.2955 24.2155 30.5909 22.761 36.5455 22.761C40.0682 22.761 43.375 23.2723 46.4659 24.2951C49.5795 25.3178 52.3864 26.8178 54.8864 28.7951C57.3864 30.7496 59.4773 33.136 61.1591 35.9541C62.8409 38.7496 64 41.9428 64.6364 45.5337ZM77.2074 93.5337V41.1701H85.2528V93.5337H77.2074ZM81.2983 32.4428C79.7301 32.4428 78.3778 31.9087 77.2415 30.8405C76.1278 29.7723 75.571 28.4882 75.571 26.9882C75.571 25.4882 76.1278 24.2041 77.2415 23.136C78.3778 22.0678 79.7301 21.5337 81.2983 21.5337C82.8665 21.5337 84.2074 22.0678 85.321 23.136C86.4574 24.2041 87.0256 25.4882 87.0256 26.9882C87.0256 28.4882 86.4574 29.7723 85.321 30.8405C84.2074 31.9087 82.8665 32.4428 81.2983 32.4428ZM122.761 41.1701V47.9882H95.625V41.1701H122.761ZM103.534 28.6246H111.58V78.5337C111.58 80.8064 111.909 82.511 112.568 83.6473C113.25 84.761 114.114 85.511 115.159 85.8973C116.227 86.261 117.352 86.4428 118.534 86.4428C119.42 86.4428 120.148 86.3973 120.716 86.3064C121.284 86.1928 121.739 86.1019 122.08 86.0337L123.716 93.261C123.17 93.4655 122.409 93.6701 121.432 93.8746C120.455 94.1019 119.216 94.2155 117.716 94.2155C115.443 94.2155 113.216 93.7269 111.034 92.7496C108.875 91.7723 107.08 90.2837 105.648 88.2837C104.239 86.2837 103.534 83.761 103.534 80.7155V28.6246ZM140.045 113.17C138.682 113.17 137.466 113.056 136.398 112.829C135.33 112.625 134.591 112.42 134.182 112.216L136.227 105.125C138.182 105.625 139.909 105.806 141.409 105.67C142.909 105.534 144.239 104.863 145.398 103.659C146.58 102.477 147.659 100.556 148.636 97.8973L150.136 93.8064L130.773 41.1701H139.5L153.955 82.8973H154.5L168.955 41.1701H177.682L155.455 101.17C154.455 103.875 153.216 106.113 151.739 107.886C150.261 109.681 148.545 111.011 146.591 111.875C144.659 112.738 142.477 113.17 140.045 113.17Z" fill="white"/>
<path d="M186.159 97.9256V96.0506H199.25V97.9256H193.761V113.505H191.648V97.9256H186.159ZM204.31 113.812C203.481 113.812 202.728 113.656 202.052 113.343C201.376 113.025 200.839 112.568 200.441 111.971C200.043 111.369 199.844 110.641 199.844 109.789C199.844 109.039 199.992 108.431 200.288 107.965C200.583 107.494 200.978 107.124 201.472 106.857C201.967 106.59 202.512 106.391 203.109 106.261C203.711 106.124 204.316 106.016 204.924 105.937C205.719 105.835 206.364 105.758 206.859 105.707C207.359 105.65 207.722 105.556 207.95 105.426C208.183 105.295 208.299 105.068 208.299 104.744V104.676C208.299 103.835 208.069 103.181 207.609 102.715C207.154 102.249 206.464 102.016 205.538 102.016C204.577 102.016 203.825 102.227 203.279 102.647C202.734 103.068 202.35 103.516 202.129 103.994L200.219 103.312C200.56 102.516 201.015 101.897 201.583 101.454C202.157 101.005 202.782 100.693 203.458 100.516C204.14 100.335 204.81 100.244 205.469 100.244C205.89 100.244 206.373 100.295 206.918 100.397C207.469 100.494 208.001 100.695 208.512 101.002C209.029 101.309 209.458 101.772 209.799 102.391C210.14 103.011 210.31 103.84 210.31 104.88V113.505H208.299V111.732H208.197C208.06 112.016 207.833 112.32 207.515 112.644C207.197 112.968 206.773 113.244 206.245 113.471C205.717 113.698 205.072 113.812 204.31 113.812ZM204.617 112.005C205.413 112.005 206.083 111.849 206.629 111.536C207.18 111.224 207.594 110.82 207.873 110.326C208.157 109.832 208.299 109.312 208.299 108.766V106.926C208.214 107.028 208.026 107.122 207.737 107.207C207.452 107.286 207.123 107.357 206.748 107.42C206.379 107.477 206.018 107.528 205.665 107.573C205.319 107.613 205.038 107.647 204.822 107.676C204.299 107.744 203.81 107.855 203.356 108.008C202.907 108.156 202.543 108.38 202.265 108.681C201.992 108.977 201.856 109.38 201.856 109.891C201.856 110.59 202.114 111.119 202.631 111.477C203.154 111.829 203.816 112.005 204.617 112.005ZM215.482 100.414L218.618 105.766L221.754 100.414H224.072L219.845 106.96L224.072 113.505H221.754L218.618 108.426L215.482 113.505H213.163L217.322 106.96L213.163 100.414H215.482ZM226.942 113.505V100.414H228.954V113.505H226.942ZM227.965 98.2324C227.573 98.2324 227.235 98.0989 226.951 97.8318C226.673 97.5648 226.533 97.2438 226.533 96.8688C226.533 96.4938 226.673 96.1727 226.951 95.9057C227.235 95.6386 227.573 95.5051 227.965 95.5051C228.357 95.5051 228.692 95.6386 228.971 95.9057C229.255 96.1727 229.397 96.4938 229.397 96.8688C229.397 97.2438 229.255 97.5648 228.971 97.8318C228.692 98.0989 228.357 98.2324 227.965 98.2324Z" fill="white"/>
<defs>
<filter id="filter0_d_13_4" x="176" y="46.2251" width="66.0197" height="48.7175" filterUnits="userSpaceOnUse" color-interpolation-filters="sRGB">
<feFlood flood-opacity="0" result="BackgroundImageFix"/>
<feColorMatrix in="SourceAlpha" type="matrix" values="0 0 0 0 0 0 0 0 0 0 0 0 0 0 0 0 0 0 127 0" result="hardAlpha"/>
<feOffset dy="4"/>
<feGaussianBlur stdDeviation="2"/>
<feComposite in2="hardAlpha" operator="out"/>
<feColorMatrix type="matrix" values="0 0 0 0 0 0 0 0 0 0 0 0 0 0 0 0 0 0 0.25 0"/>
<feBlend mode="normal" in2="BackgroundImageFix" result="effect1_dropShadow_13_4"/>
<feBlend mode="normal" in="SourceGraphic" in2="effect1_dropShadow_13_4" result="shape"/>
</filter>
</defs>
</svg>
