<svg width="44" height="19" viewBox="0 0 44 19" fill="none" xmlns="http://www.w3.org/2000/svg">
<path d="M0.159091 2.42045V0.545454H13.25V2.42045H7.76136V18H5.64773V2.42045H0.159091ZM18.3104 18.3068C17.4808 18.3068 16.728 18.1506 16.0518 17.8381C15.3757 17.5199 14.8388 17.0625 14.4411 16.4659C14.0433 15.8636 13.8445 15.1364 13.8445 14.2841C13.8445 13.5341 13.9922 12.9261 14.2876 12.4602C14.5831 11.9886 14.978 11.6193 15.4723 11.3523C15.9666 11.0852 16.5121 10.8864 17.1087 10.7557C17.7109 10.6193 18.3161 10.5114 18.924 10.4318C19.7195 10.3295 20.3643 10.2528 20.8587 10.2017C21.3587 10.1449 21.7223 10.0511 21.9496 9.92045C22.1825 9.78977 22.299 9.5625 22.299 9.23864V9.17045C22.299 8.32955 22.0689 7.67614 21.6087 7.21023C21.1541 6.74432 20.4638 6.51136 19.5376 6.51136C18.5774 6.51136 17.8246 6.72159 17.2791 7.14205C16.7337 7.5625 16.3501 8.01136 16.1286 8.48864L14.2195 7.80682C14.5604 7.01136 15.0149 6.39205 15.5831 5.94886C16.157 5.5 16.782 5.1875 17.4581 5.01136C18.1399 4.82955 18.8104 4.73864 19.4695 4.73864C19.8899 4.73864 20.3729 4.78977 20.9183 4.89204C21.4695 4.98864 22.0007 5.19034 22.5121 5.49716C23.0291 5.80398 23.4581 6.26705 23.799 6.88636C24.1399 7.50568 24.3104 8.33523 24.3104 9.375V18H22.299V16.2273H22.1967C22.0604 16.5114 21.8331 16.8153 21.5149 17.1392C21.1967 17.4631 20.7734 17.7386 20.245 17.9659C19.7166 18.1932 19.0717 18.3068 18.3104 18.3068ZM18.6172 16.5C19.4126 16.5 20.0831 16.3438 20.6286 16.0312C21.1797 15.7188 21.5945 15.3153 21.8729 14.821C22.157 14.3267 22.299 13.8068 22.299 13.2614V11.4205C22.2138 11.5227 22.0263 11.6165 21.7365 11.7017C21.4524 11.7812 21.1229 11.8523 20.7479 11.9148C20.3786 11.9716 20.0178 12.0227 19.6655 12.0682C19.3189 12.108 19.0376 12.142 18.8217 12.1705C18.299 12.2386 17.8104 12.3494 17.3558 12.5028C16.907 12.6506 16.5433 12.875 16.2649 13.1761C15.9922 13.4716 15.8558 13.875 15.8558 14.3864C15.8558 15.0852 16.1143 15.6136 16.6314 15.9716C17.1541 16.3239 17.8161 16.5 18.6172 16.5ZM29.4815 4.90909L32.6179 10.2614L35.7543 4.90909H38.0724L33.8452 11.4545L38.0724 18H35.7543L32.6179 12.9205L29.4815 18H27.1634L31.3224 11.4545L27.1634 4.90909H29.4815ZM40.9425 18V4.90909H42.9538V18H40.9425ZM41.9652 2.72727C41.5732 2.72727 41.2351 2.59375 40.951 2.3267C40.6726 2.05966 40.5334 1.73864 40.5334 1.36364C40.5334 0.988636 40.6726 0.667614 40.951 0.400568C41.2351 0.133523 41.5732 0 41.9652 0C42.3572 0 42.6925 0.133523 42.9709 0.400568C43.255 0.667614 43.397 0.988636 43.397 1.36364C43.397 1.73864 43.255 2.05966 42.9709 2.3267C42.6925 2.59375 42.3572 2.72727 41.9652 2.72727Z" fill="white"/>
</svg>
